# xmcd
#
# Track frame offsets:
#	150
#	16575
#	32553
#	49587
#	65360
#	83381
#	99477
#	115232
#	130218
#	148839
#	167102
#	187396
#
# Disc length: 2756 seconds
#
# Revision: 1
# Processed by: cddbd v1.5.2PL0 Copyright (c) Steve Scherf et al.
# Submitted via: audiograbber 1.83.01
#
DISCID=9a0ac20c
DTITLE=Tiktak - Myrskyn Edellä
DYEAR=2005
DGENRE=Pop
TTITLE0=Sankaritar
TTITLE1=Muututaan
TTITLE2=Kuka Vaan
TTITLE3=Poltettu Maa
TTITLE4=Viimeisen Kerran
TTITLE5=Siivet
TTITLE6=Paha Sana
TTITLE7=Yksin Ja Irrallaan
TTITLE8=Samantekevää
TTITLE9=Kaikki Hyvin
TTITLE10=Minä Olen Yö
TTITLE11=Miten Onni Korjataan
EXTD=TR.
EXTT0=
EXTT1=
EXTT2=
EXTT3=
EXTT4=
EXTT5=
EXTT6=
EXTT7=
EXTT8=
EXTT9=
EXTT10=
EXTT11=
PLAYORDER=
